/* XPM */
static char *_ef4d9e9e7b84f1cf79da31ab4f117d1[] = {
/* columns rows colors chars-per-pixel */
"180 20 53 1 ",
"  c #040404",
". c #050504",
"X c #080A04",
"o c #0B0B04",
"O c #0C0E04",
"+ c #0F1004",
"@ c #121304",
"# c #151504",
"$ c #161704",
"% c #191A04",
"& c #1B1D04",
"* c #1D2004",
"= c #202205",
"- c #222205",
"; c #252404",
": c #262405",
"> c #262505",
", c #2B2507",
"< c #2B2607",
"1 c #2C2808",
"2 c #2D2B0A",
"3 c #2D2B0B",
"4 c #302C0E",
"5 c #302D0E",
"6 c #332D10",
"7 c #332F10",
"8 c gray28",
"9 c gray30",
"0 c gray33",
"q c #565656",
"w c #5A5A5A",
"e c #5D5D5D",
"r c #606060",
"t c #626262",
"y c gray40",
"u c #676767",
"i c gray42",
"p c #6D6D6D",
"a c gray44",
"s c gray45",
"d c #777777",
"f c gray48",
"g c #7C7C7C",
"h c #7E7E7E",
"j c #808080",
"k c #848484",
"l c gray52",
"z c #898989",
"x c #8B8B8B",
"c c #909090",
"v c #939393",
"b c gray67",
"n c #CECECE",
/* pixels */
"nnbbvvbvvvvvvvvvvvvvvvvvvvvvvvvvvvvvvvvvvvvvvvvvvvvvvvvvvvvvvvvvvvvvvvvvvvvvvvvvvvvvvvvvvvvvvvvvvvvvvvvvvvvvvvvvvvvvvvvvvvvvvvvvvvvvvvvvvvvvvvvvvvvvvvvvvvvvvvvvvvvvvvvvvvvvvvvvvvvp",
"beeeueetweweweutweaeheweeeyeewereeeieedtheeteyttetureteeeeaeheeeweeeereeeqeteeaejweweeeiweeeweeeteaeheeereeaeeeeweeeeeuygweeeeeweteeeeeeeeaeheeeeeweeeeeyetewryefyeeeeeruueeeteeeea8",
"by        o X     srhw O           X .jehe .  X   .  X.  .huhe       .        heht       +.      .hihe .  .+     X    hwhe .  o       .   hehe   .   X       Xhejt    .    oX.    h8",
"vr &>>%>:3:>:$>>>>hqht 3>>>>>>>;1<&>=<kehe >>>>>,>:>>>;&-=jege >;>2>&->>>%>>>:hehw >;>-;&>-;>%>5-;heft >*>><>>>>%=>2&>sehe *>>>>>>:1=>=:<>hrhe.>>;;>;>>>>>;;2>dehe ->;->><>:<>5>4>h8",
"be >>>>;>>>;;<>>>:hehe >;>>;>>>>4,:>2&hehe.%>>>=>>>>>>;->>dthw >>>1>>>=>2>>>>>leheO>&;4>>:>>2>>>$>jehe >>16->>>>>;>>&%frkr >1<>>>,>>*>2>>>hrhe >>>;>&6>:&->>>>hwhr >;->:1&1<>>=1<>h8",
"vu >1>%>;;><1>>>1>hwheX>><>>>>>:>>>>>>hwhe >:><>>,><>&>&3:jehe.>>:>>;;>>2>>>>-helt ;:2>:>*>>>&>>1>syhe &>>>>>>><>>4>>>ftle >->><>>*>%:,:=>gehe &>>>3,>>>>>&22>hehe >*>:<>2==>&>=:,h8",
"ve 12>&>>>>=3>>>2>hehr >:&->,>><>:>>>;heht >,>>>>>*>2&>>=1jehe ;;>$>2:>=>>>&*>hehr.>>=>=->>>>>&;>>hehe &$;:>&6:>>=,,=>kehe.;><;>>:>,>>>7:>kesp.>5*>>22-;>>>>>>hthe 4>$:>>>>>1>>=>>j8",
"ve ><>3>>>>>>>>>>*hehe >>>=>>>>><2>>2>jehe ,>>>;:>>2>>>3>>hyhe.>>2>>&>>>>>$1-<deht >=&>21>>>:&>>>3kyhe >>2>;>>%>>>>>:%fexe.>>;=>&>>;>:>2><hthe >>>>:>$>&>>>;>>hehe >%%>>>3>>>>>>>>h8",
"ve >>:>>*>&>>>,>$>hrfe.>:>>4&%>>->*>&>hehe >>>:=2>;>:>4>>>hwhe 1>,=<:<1<-&->=6h9hw.>>>>>,>>>:>>>=>frle >>>>>>==>>-&>,>hyae >>>;::1>>-,1>>2hest &>=>5;>2;&->&3>fejeX1>>2%>&;>>>>1>>d8",
"vr ><&>>:=>3->>;3>htheX=>&;>>>>&>1>>;6heheX=>-;>*>>>:>>>>>hehe =;-=&>>>>>>,>>:hejr *:>>><>>>>6>:2>gejwo>=3>>>2:>>*>>$7hyhe >>>&>:>>>>>>>>>fehe >>*=>:>>>>>:;2>hwhe.>:,;<&>=>,1>>>>h8",
"ve *:>,1;;>>>&>>;>xese >>>>;>*;>:2>%>;heze &:;>>><5>>;>>>-gehe ;<6>&<>>>>>:&>>fug9.>>;&>;>>>1;=>=,kyhe &>>>>>>1>>,:->1hege.:>76&>-1>>>>>>-hefe >:;:>*&><$>>>>,hehq >>>>*>>>>>;:>%>h8",
"ve ,>>>&>2;>>>1:>2sefe+>>=>>3>,:&;2>>>hehi &>>;-&&=>>>&>;>hejeX*>>&>>:,>>>3>;=kelt >:>;>>3>>-,;-->heke 2<#:%>>>>&2*=<2jile =&>>>1;>>>;->>=hese.,&>>;>4>->$>=>>fehw &>>>=>;%>>>>>>>h8",
"vy.>>&,>>>><>>>%>:hwhe >>>>><>=>::1*=-fehe >>%<=>-2>;>>>&>fwgw.>>>>;>2>>>>>>>>hwhe >=;,>*>1=>=,3>,hrhrX>2->>>>>>>>>&>>hehe &>>>1>>>>>>=>>>hyhe >:1>>>><>>><>>>hwhr.><>>>-3:>:>2>=>h8",
"vu.>>><,>>:>&>:1%>hese.>,>>>>@;><>:,$>aehe ;>-><&>>>>>>;>>hwht >,<,>><*>>>=>>:hehw >>>%-&;>>:>>>>>heh0 >;>::>:>>>><5;;hehe.>>>>>>>&>,>:=>>hthe >3;>>>1,>>>>>,>hehr.><2,>>>>>>>:>&1h8",
"ve 2>*>&>;>>=<;&=>fwse >>:<>&>>>>>>>>>heke >>>>>:%>>=>>>><hwhe >>1%3>:>>,>5*>>hege 1>><>>>>=>>>>;:fele ;>>>&>>>=5>>>3>jehe >>2&>>>&>>>>>>>lege ,;>;%>:->:>>>,>hehe >=>&:>>;>>>,>;;h8",
"ve >2><>;>><>>>>>>hult :>><>>&3>%>;>>;heza >>&3>:->>=*;&:>kyhe >=:>2,>>:;;:>>>hede >>>>;<>1>>&>>2-heje ;>:<>;:&4<>>>>:dele %;7>>>>>;=>=3>>hehe >>>=;<>>>:,>>>>htje >>>>>>>1>>>>1&>h8",
"ve >>>>>>>>>4>>>>:hehe =>>=&>:>,>>>;>>jelu ;>>2>>>&>>>2<*-jehe >;>>;;>6>>:*>>>grawO6>>>:>;*==&>=<;jehe >>->>>=>>>>->>,hege >*1>>>1>:,>>>>>hehe &>>>-->>:>;4>>1hehe >>;%:->&1:>>*2>h8",
"ve >>%;>&>:>>$:>>>jehe.>>>>->;>>>*2>>>hehe 62:>>;>>&>>>>>=jwhe -&1&<>2>>%>&6->srse *>;>>2>,>>&>1>>dese >&-><>;:,>-;<2:hrjw >>>3&>>%-=>>>5,hehe.>>-=>;=::>>->>&gefy >:1>&2>&>><=,>=h8",
"vahhhhhhhhhzkhhazjhehihfhkfhfhghhlhhjjhthahkhhkhlhghhhsjlgdesigdhhhhhhhjhkkjjghehshhhjhffhhhlghhhfhehshfhhhhjhhsdjjhjkhwdahhghhhhchhshhhhggeffcfhhhhhhhhshkhjhhegahhhhhghghgdshhhjh8",
"vueereetteweueeyeeeepryewetereeweeeeeqeeaeeeettreeereeeeweeeaeeeeetteeeyeewttqeeaeteeerwweeeyeerereeaeyreteeeeetqeerereruereqreweeeereeweewwieewweeeeereeqeeeteepeeereeeeeweeeeeeer8"
};
