/* XPM */
static char *a4b160af91134ca6f1277a1a97bb0977[] = {
/* columns rows colors chars-per-pixel */
"16 16 32 1 ",
"  c #DDD8CC",
". c #E1DCD1",
"X c #E1DCD3",
"o c #E1DDD3",
"O c #E2DDD3",
"+ c #E3DED4",
"@ c #E3DFD5",
"# c #E8E4DC",
"$ c #E9E5DD",
"% c #E9E6DE",
"& c #E9E6DF",
"* c #EAE7DF",
"= c #EAE7E0",
"- c #EBE7E0",
"; c #EBE8E0",
": c #EBE8E1",
"> c #ECE8E2",
", c #ECE9E2",
"< c #ECEAE2",
"1 c #EDEBE5",
"2 c #EEEBE4",
"3 c #EEEBE5",
"4 c #EEECE5",
"5 c #EFEDE6",
"6 c #EFEDE7",
"7 c #F0EDE7",
"8 c #F0EEE7",
"9 c #F0EEE8",
"0 c #F1EEE9",
"q c #F1EFE9",
"w c #F2F0EA",
"e c #F5F4F0",
/* pixels */
"qqq9@w@q@4@23700",
"@@   9@5@$  @@@+",
"@57999@>@$$1113+",
"@@@@9@@w@ 1@@@@o",
"6<9 9@ww> 1 ee:1",
"8@  #@@1  9 @@@1",
"0@9>$e@1@ww99>@1",
"0@@@@e@#@w@@@@@1",
"0999@>@#@w@119$$",
"@@@@@>@# >@@@@1$",
"@e9ee>@> >>e9 ,$",
"@@@e@@@3 @@e  *$",
"3= ;@ee99e@9@$$1",
"@  * e9997@9@@@X",
"@%*& 1+++-@$$&=X",
"@@@@ @@q ....XXO"
};
