/* XPM */
static char *_de8be7567bd40c88ff120e461a28dbe[] = {
/* columns rows colors chars-per-pixel */
"22 22 68 1 ",
"  c None",
". c #546251",
"X c #556352",
"o c #566453",
"O c #586655",
"+ c #596756",
"@ c #5A6857",
"# c #5B6958",
"$ c #5C6A59",
"% c #5D6B5A",
"& c #5E6C5B",
"* c #5F6D5C",
"= c #606E5D",
"- c #616F5E",
"; c #62705F",
": c #647261",
"> c #657362",
", c #667463",
"< c #677564",
"1 c #687665",
"2 c #6D7B6A",
"3 c #6E7C6B",
"4 c #90A18C",
"5 c #95A691",
"6 c #99AA95",
"7 c #9AAB96",
"8 c #9BAC97",
"9 c #9CAD98",
"0 c #9DAE99",
"q c #9EAF9A",
"w c #9FB09B",
"e c #A0B19C",
"r c #A1B29D",
"t c #A2B39E",
"y c #A3B49F",
"u c #A4B5A0",
"i c #A5B6A1",
"p c #A8B9A4",
"a c #A9BAA5",
"s c #AABBA6",
"d c #ABBCA7",
"f c #ACBDA8",
"g c #AEBFAA",
"h c #CADDC5",
"j c #CDE0C8",
"k c #CEE1C9",
"l c #CFE2CA",
"z c #D0E3CB",
"x c #D1E4CC",
"c c #D2E5CD",
"v c #D3E6CE",
"b c #D4E7CF",
"n c #D5E8D0",
"m c #D6E9D1",
"M c #D7EAD2",
"N c #D8EBD3",
"B c #DAEDD5",
"V c #DCEFD7",
"C c #DDF0D8",
"Z c #DEF1D9",
"A c #E2F5DD",
"S c #F6F6F6",
"D c #F7F9F7",
"F c #F8FAF8",
"G c gray99",
"H c #FDFDFD",
"J c #FCFEFC",
"K c white",
/* pixels */
"KHSDCJnnkbnBnnNnjnnnnr",
"Grrr8rrreg7r4t7r7rrsr&",
"Dr-*O*+&***;*=#*%**pi*",
"Kr*                xr*",
"nf*                Ar,",
"nr*                nr>",
"nr*                nr*",
"hr*                nr*",
"nr*                na*",
"ma*                Nro",
"nr*                Zr1",
"Br#                nr@",
"nyX                nr*",
"Vr<                nr*",
"nr2                n9O",
"V0-                nr=",
"hr.                lu>",
"v5@                Mr*",
"nw$                FwX",
"mrzvnnNlxncnnnnnnBDDr*",
"nrrd7trr6dr0rrrqrqrwe*",
"r**::+$**,<****&,*3*o="
};
