/* XPM */
static char *_ba59f09850c4317b25c29b923cbd398[] = {
/* columns rows colors chars-per-pixel */
"16 16 62 1 ",
"  c #5F3529",
". c #62372A",
"X c #65372B",
"o c #67392D",
"O c #6A3B2E",
"+ c #6B3C2F",
"@ c #6D3D2F",
"# c #6E3D30",
"$ c #733F31",
"% c #764232",
"& c #794335",
"* c #7C4536",
"= c #7E4536",
"- c #7F4637",
"; c #804738",
": c #824938",
"> c #834939",
", c #864A3A",
"< c #884C3A",
"1 c #894C3B",
"2 c #8C4D3C",
"3 c #8D4E3D",
"4 c #8F503F",
"5 c #92503E",
"6 c #945240",
"7 c #975341",
"8 c #9A5542",
"9 c #9B5643",
"0 c #9D5745",
"q c #9F5845",
"w c #A35B47",
"e c #A55B47",
"r c #A75E47",
"t c #AA5E4A",
"y c #B1624D",
"u c #B2634E",
"i c #99857F",
"p c #988680",
"a c #9B8883",
"s c #9D8985",
"d c #9C8A84",
"f c #9E8A84",
"g c #9E8C86",
"h c #9F8C87",
"j c #A08C86",
"k c #A08E88",
"l c #A3918B",
"z c #AB9793",
"x c #AB9893",
"c c #AC9994",
"v c #AD9995",
"b c #AE9A96",
"n c #AE9B96",
"m c #AF9D97",
"M c #B09C98",
"N c #B19F99",
"B c #B2A09A",
"V c #B5A19B",
"C c #B5A39D",
"Z c #B6A39E",
"A c #B7A59F",
"S c #B8A49E",
/* pixels */
"959c904e9t3m9e99",
"**,Ay*#o*%>m9-*=",
"*2+m9-*$***m:4*3",
"khdNfffafjfCffal",
"1999959meeq9999b",
"9*8*O*&m9*$*@**N",
"9.<#*X*Vr#>%***n",
"fffdsjfNffaffffN",
"q99m79wuq99m99u=",
"***v6***,1&x9<**",
"1*<Z9* *+:*b9*,*",
"ffiNffffffdBskaf",
"0qt9995z6u99790S",
"9*&***Oz9&***=;m",
"9O,****M9***:*;m",
"fspgfgfNjfafjffc"
};
