/* XPM */
static char *be5f53332fdf44f9902036ee04f843f9[] = {
/* columns rows colors chars-per-pixel */
"33 33 15 1 ",
"  c None",
". c #081800",
"X c #183800",
"o c #204000",
"O c #204800",
"+ c #285800",
"@ c #306000",
"# c #307000",
"$ c #687000",
"% c #408800",
"& c #489800",
"* c #50A800",
"= c #C8C800",
"- c #E0E000",
"; c #F8F800",
/* pixels */
" @@@############@@@@@+++++####***",
" #+O##@@@+++@@@@############++Oo*",
" #OX##############@@@@++@@@@##oX*",
" ***+@@XXXXXXXXXXXXXXXXXXXX@@+*&*",
" **%#%%%oooooXXXXooooXXoXo&%%@*&*",
" **%#%%*&XXXooooooooooooo&%&%@*%*",
" ;;;==-----==========--;;;;;--;;;",
" ;;;===-----========--;;;;;---;;;",
" &&*oO+&&%**+@########%*&%*oO+*%*",
" %&*ooO+*&%*%+@@@@###***%*oO+#*%*",
" X.XoX..X..X......X.....XoX....X*",
" .$.X.-;.--.;;-===.-===;.X.$==$.X",
" .=$..;;.;;.;==-;;.=-;;;;.$;;;-$.",
" .;;$.--.--.======.==..;;.=;..;=.",
" .;;;$;;.;;...==...==X.;;.--X.;;.",
" .-;;;;=.;=.O.-=.*.-=.$=;.-=X.==.",
" .;-----.--.o.==.&.==$=;=.==X.--.",
" .;;$;;;.;;.#.==.%.===;=..;;X.=;.",
" .-;.$;=.;=.*.-;.*.-;=;=..=;..;=.",
" .;;..$;.;;.%.==.O.==$=;=.$----$.",
" .;-.X.$.==.%.-=.+.-=..=;..$==$.X",
" X..XOX.X..X&X..X@X..XX...X....X&",
" *&%oOO+*&%&*oO+@@@@#&*&**+@##&%%",
" **&oO+%*&**oO+@######*%&**+@#&%%",
" ;;;===-----========--;;;;;---;;;",
" ;;;==-----==========--;;;;;--;;;",
" *&*#%%*%XoooooooOOOOoooo*&%&*%&%",
" *&*#%%%XoOOOOOOOOOOOOOOOO*&%&%&%",
" *&*###XoOOOOOOooooooooOOoo*&%%%%",
" *#+%%%%%%%%########%%%#######+O#",
" *+o######%%%%%%%%######%%####OX#",
" *%&%%%%%%%%%%%%%%%%%%%%%########",
"                                 "
};
