/* XPM */
static char *_42e10ef147741c3d2f2103d0d5a9b08[] = {
/* columns rows colors chars-per-pixel */
"16 16 61 1 ",
"  c #4D5A35",
". c #515F35",
"X c #506032",
"o c #526137",
"O c #5A6C37",
"+ c #536138",
"@ c #57653B",
"# c #59673E",
"$ c #5F7536",
"% c #5E703B",
"& c #617639",
"* c #677B3F",
"= c #515B40",
"- c #525B41",
"; c #5D5D5D",
": c #5F5F5F",
"> c #5B6842",
", c #5C6943",
"< c #5C654A",
"1 c #5E674D",
"2 c #616E47",
"3 c #697E41",
"4 c #6B7F43",
"5 c #637049",
"6 c #63704A",
"7 c #65724C",
"8 c #67754E",
"9 c #6B7B4D",
"0 c #6D7D4F",
"q c #616B50",
"w c #6D7A54",
"e c #697358",
"r c #707F52",
"t c #606060",
"y c #626262",
"u c #656565",
"i c DimGray",
"p c #6A6A6A",
"a c #6C6C6C",
"s c gray43",
"d c #6F6F6F",
"f c gray44",
"g c gray45",
"h c #747474",
"j c #777777",
"k c gray47",
"l c #797979",
"z c gray50",
"x c #738355",
"c c #768658",
"v c #7A8A5D",
"b c #888888",
"n c #8D8D8D",
"m c #909090",
"M c #939393",
"N c gray58",
"B c #979797",
"V c #9A9A9A",
"C c gray61",
"Z c #9F9F9F",
"A c #A4A4A4",
/* pixels */
"ZBvv3x&BMMBCnewy",
"Zbbb7bbbgzzlzz%,",
"ml7lblzzxbvzz6..",
"Bg8bzw00xglz8q6,",
"Bjll00bbbbbg1qk;",
"m7ljzgzzlkgz<ki;",
"ngjgoo+sq6fuaggt",
":::; ..O.;<yq,,,",
"m&&x@>2:AeCnvvcC",
"lj.638d;Nb87llll",
"bbl6kb6:Bzz1.@ll",
"zzzrbzftCbggb8zl",
"klxxxki;Nkzzkk6l",
"zzl4k9i,Mbbzbkbg",
"iaisagk,wajgffai",
"tq :::;>;;yt- ;;"
};
