/* XPM */
static char *_9538dd9b5ca481fcc655bac8c3e76a5[] = {
/* columns rows colors chars-per-pixel */
"16 16 78 1 ",
"  c #4D5A35",
". c #505E35",
"X c #515F35",
"o c #506032",
"O c #526137",
"+ c #5A6C37",
"@ c #536138",
"# c #55643A",
"$ c #57653B",
"% c #59673E",
"& c #5F7536",
"* c #5E703B",
"= c #617639",
"- c #62743F",
"; c #677B3F",
": c #515B40",
"> c #525B41",
", c #5D5D5D",
"< c gray37",
"1 c #5F5F5F",
"2 c #5B6841",
"3 c #5B6842",
"4 c #5C6942",
"5 c #5C6943",
"6 c #5D6A43",
"7 c #5C654A",
"8 c #5E674D",
"9 c #616E47",
"0 c #697E41",
"q c #6A7F43",
"w c #6B7F43",
"e c #637049",
"r c #63704A",
"t c #64714A",
"y c #65724C",
"u c #67754E",
"i c #6B7B4D",
"p c #6D7D4F",
"a c #616B50",
"s c #6C7952",
"d c #6D7A54",
"f c #6D7B54",
"g c #697358",
"h c #707F52",
"j c #606060",
"k c gray38",
"l c #626262",
"z c #656565",
"x c DimGray",
"c c #6A6A6A",
"v c #6C6C6C",
"b c gray43",
"n c #6F6F6F",
"m c gray44",
"M c #727272",
"N c gray45",
"B c #747474",
"V c #777777",
"C c gray47",
"Z c #797979",
"A c gray50",
"S c #738355",
"D c #768658",
"F c #79895B",
"G c #7A8A5D",
"H c #7C8C5E",
"J c #888888",
"K c #8D8D8D",
"L c #909090",
"P c #939393",
"I c gray58",
"U c #979797",
"Y c #989898",
"T c #9A9A9A",
"R c #9B9B9B",
"E c gray61",
"W c #9F9F9F",
"Q c #A4A4A4",
/* pixels */
"WYHG0wqIIIITKfdj",
"EJJJyJJJNAAZAA*5",
"LZyZJZAAhJAAAeOX",
"UNuJAhpppZZAua93",
"IZZZppJJJJJN8aB,",
"PyZZANAAZZNA7Zck",
"KMCB@@@brrmzvBMk",
",,,, Xo+.,5lj432",
"I=&q%%-1QgRKFGDE",
"ZZ#e;un,IJuuZZZZ",
"JJZeZJtjUAA8#$ZZ",
"AAASJAb1EJNNAuAZ",
"ZZpSSZx,IZAAZZyZ",
"AAZpZix5PJJAJZJN",
"xxxbcBC6svVMbbxx",
"jj>111,2,<lj>:,,"
};
