/* XPM */
static char *_be5dfc5d3af4fb6c65bceeb1004031a[] = {
/* columns rows colors chars-per-pixel */
"16 16 19 1 ",
"  c None",
". c #372A17",
"X c #3B2E1B",
"o c #3C2F1C",
"O c #3D301D",
"+ c #403320",
"@ c #423522",
"# c #4C3D26",
"$ c #675231",
"% c #7C623E",
"& c #937344",
"* c #957546",
"= c #977748",
"- c #987849",
"; c #9F7F50",
": c #FF8F00",
"> c #FFD800",
", c #FFFF97",
"< c white",
/* pixels */
"                ",
"                ",
"                ",
"                ",
"                ",
"                ",
"       >:       ",
"       ,<       ",
"       %#       ",
"       &o       ",
"       *@       ",
"       ;+       ",
"       =o       ",
"       $O       ",
"       -X       ",
"       $.       "
};
